<svg width="290" height="72" viewBox="0 0 290 72" fill="none" xmlns="http://www.w3.org/2000/svg">
<path d="M58.1192 57.2936C63.9882 52.9213 65.0124 44.86 60.4068 39.2881C55.8013 33.7163 47.3101 32.744 41.4411 37.1163C35.5722 41.4887 34.548 49.55 39.1535 55.1219C43.759 60.6937 52.2503 61.666 58.1192 57.2936Z" fill="url(#paint0_linear_1380_29102)"/>
<path d="M47.6625 45.25C63.2243 30.4761 71.4778 14.3583 66.0971 9.25002C60.7164 4.14174 43.7391 11.9773 28.1772 26.7513C12.6154 41.5253 4.36192 57.643 9.74262 62.7513C15.1233 67.8596 32.1006 60.024 47.6625 45.25Z" fill="url(#paint1_radial_1380_29102)"/>
<path d="M37.2127 35.4926C44.0177 29.0322 44.0177 18.5577 37.2127 12.0972C30.4077 5.63672 19.3746 5.63672 12.5696 12.0972C5.76459 18.5577 5.7646 29.0322 12.5696 35.4926C19.3746 41.9531 30.4077 41.9531 37.2127 35.4926Z" fill="url(#paint2_linear_1380_29102)"/>
<path d="M154.808 32.3105H129.85V36.2597H154.808V32.3105Z" fill="white"/>
<path d="M90.332 60.9429V57.3596L108.914 37.69C111.339 35.1094 113.293 32.9034 114.774 31.0726C116.256 29.2415 117.329 27.5501 117.996 25.9983C118.681 24.4463 119.024 22.8333 119.024 21.1593C119.024 19.1191 118.515 17.3406 117.496 15.8235C116.496 14.2889 115.117 13.0945 113.358 12.24C111.598 11.3856 109.617 10.9584 107.414 10.9584C105.081 10.9584 103.035 11.4292 101.275 12.3708C99.5348 13.3124 98.1832 14.6028 97.2202 16.2419C96.2574 17.881 95.776 19.7644 95.776 21.8917H90.8042C90.8042 18.9273 91.5265 16.3029 92.9706 14.0186C94.4335 11.7169 96.424 9.91211 98.9423 8.60431C101.479 7.29648 104.349 6.64258 107.553 6.64258C110.719 6.64258 113.534 7.28777 115.996 8.57815C118.459 9.85109 120.394 11.5861 121.801 13.7832C123.208 15.9803 123.912 18.439 123.912 21.1593C123.912 23.1298 123.542 25.0392 122.801 26.8875C122.079 28.7358 120.829 30.7935 119.051 33.0605C117.274 35.3272 114.811 38.0998 111.663 41.3782L97.5535 56.2086V56.5487H125.69V60.9429H90.332Z" fill="white"/>
<path fill-rule="evenodd" clip-rule="evenodd" d="M284.709 5.79275C284.025 6.03699 283.115 6.77926 282.634 7.48362C282.284 7.99655 282.237 8.21059 282.233 9.26059C282.229 10.2215 282.29 10.564 282.55 11.0162C284.103 13.7276 288.136 13.7178 289.619 10.9988C290.112 10.093 290.129 8.48489 289.652 7.63207C289.298 7.00062 288.531 6.30622 287.782 5.93993C287.164 5.6388 285.378 5.55314 284.709 5.79275ZM164.168 33.3477V60.9461H166.853H169.538V57.2241C169.538 54.2076 169.575 53.5022 169.737 53.5022C169.847 53.5022 170.008 53.6495 170.096 53.8293C170.304 54.2612 171.649 55.7989 172.512 56.5921C174.757 58.6579 177.377 60.1477 180.274 61.0078C181.845 61.4742 184.884 61.9257 186.465 61.9276C187.993 61.9296 190.581 61.578 192.248 61.1423C200.395 59.0121 206.271 52.8192 207.8 44.7513C208.113 43.0937 208.111 39.4495 207.796 37.7312C207.29 34.9741 206.419 32.7572 204.923 30.4178C201.807 25.5413 196.624 22.0889 190.718 20.9555C190.074 20.8318 188.46 20.7142 186.914 20.6781C183.909 20.6082 182.368 20.8119 179.82 21.6157C176.3 22.726 172.993 24.9905 170.709 27.8538C170.209 28.4809 169.741 29.0147 169.669 29.0406C169.594 29.0672 169.538 24.051 169.538 17.4183V5.74935H166.853H164.168V33.3477ZM245.384 20.8707C241.607 21.5805 238.728 22.8031 235.839 24.9242C232.555 27.335 230.04 30.6993 228.688 34.4873C227.812 36.9401 227.644 38.0206 227.644 41.2129C227.644 44.3895 227.827 45.5705 228.698 48.0233C230.783 53.8981 235.958 58.825 242.104 60.7865C244.162 61.4433 247.139 61.9292 249.107 61.9292C252.87 61.9292 257.138 60.7318 260.246 58.8044C261.801 57.8392 264.322 55.5489 265.193 54.3097C265.504 53.8655 265.824 53.5022 265.901 53.5022C265.987 53.5022 266.043 54.9777 266.043 57.2273V60.9523L268.766 60.9141L271.487 60.8758V41.2129V21.5498L268.766 21.5117L266.043 21.4733V25.1751C266.043 27.211 266.002 28.9151 265.953 28.9619C265.903 29.0091 265.476 28.5613 265.005 27.9673C261.963 24.1261 257.922 21.7954 252.678 20.8539C251.149 20.5795 246.883 20.5893 245.384 20.8707ZM283.416 21.652C283.377 21.7503 283.36 30.6159 283.381 41.3534L283.42 60.8758H286.104H288.791V41.2129V21.5498L286.139 21.5117C284.099 21.482 283.471 21.5144 283.416 21.652ZM183.932 25.6934C177.812 26.418 172.525 30.463 170.531 35.946C169.863 37.7817 169.648 39.0797 169.647 41.2933C169.646 43.3764 169.734 43.9476 170.379 46.0024C172.047 51.3258 176.706 55.325 182.738 56.612C183.939 56.8679 188.253 56.8675 189.45 56.6112C192.972 55.8575 195.339 54.6427 197.817 52.3168C200.08 50.1932 201.568 47.6433 202.288 44.6539C202.677 43.032 202.687 39.4429 202.304 37.9123C201.48 34.6218 200.135 32.303 197.735 30.0371C196.232 28.6171 194.808 27.7027 192.83 26.885C191.509 26.3394 191.064 26.2064 189.301 25.8312C188.395 25.6384 185.109 25.554 183.932 25.6934ZM247.25 25.7045C240.741 26.4843 235.246 31.0535 233.533 37.112C232.909 39.3169 232.874 42.9017 233.453 45.0752C235.025 50.9552 239.743 55.249 246.13 56.612C247.331 56.8679 251.645 56.8675 252.844 56.6112C258.806 55.3352 263.174 51.7043 265.122 46.4095C267.831 39.0382 264.295 30.6087 257.093 27.2779C255.98 26.7628 255.354 26.5394 253.439 25.9747C252.199 25.6093 249.155 25.4764 247.25 25.7045ZM216.404 53.3469C212.667 54.5622 212.189 59.3026 215.612 61.1972C216.242 61.546 216.43 61.578 217.864 61.578H219.432L220.289 61.0375C221.709 60.1424 222.331 59.0671 222.337 57.4948C222.341 56.2774 222.038 55.3992 221.359 54.6522C220.71 53.9378 220.013 53.5292 219.016 53.2796C217.985 53.0208 217.357 53.037 216.404 53.3469Z" fill="white"/>
<defs>
<linearGradient id="paint0_linear_1380_29102" x1="62.8142" y1="54.8939" x2="47.1156" y2="48.814" gradientUnits="userSpaceOnUse">
<stop stop-color="#4D5F75"/>
<stop offset="1" stop-color="#1A222C"/>
</linearGradient>
<radialGradient id="paint1_radial_1380_29102" cx="0" cy="0" r="1" gradientTransform="matrix(9.87504 9.23285 -28.1269 27.1142 37.9199 36.0007)" gradientUnits="userSpaceOnUse">
<stop offset="0.336538" stop-color="#7C7C7C"/>
<stop offset="1" stop-color="#BDBDBD"/>
</radialGradient>
<linearGradient id="paint2_linear_1380_29102" x1="12.5695" y1="12.0971" x2="53.1698" y2="21.0107" gradientUnits="userSpaceOnUse">
<stop stop-color="#EFEFEF"/>
<stop offset="1" stop-color="#999999"/>
</linearGradient>
</defs>
</svg>
