<svg xmlns="http://www.w3.org/2000/svg" viewBox="0 0 32 32">
  <path d="M16 1.5L6 16.5l10 6 10-6L16 1.5z" fill="#343434"/>
  <path d="M16 1.5v13l10 2-10-15z" fill="#8C8C8C"/>
  <path d="M16 1.5v13l-10 2 10-15z" fill="#343434"/>
  <path d="M16 24.5l10-8-10 6v2z" fill="#8C8C8C"/>
  <path d="M16 24.5l-10-8 10 6v2z" fill="#343434"/>
  <path d="M16 26.5l10-10-10 6v4z" fill="#141414"/>
  <path d="M16 26.5l-10-10 10 6v4z" fill="#393939"/>
  <path d="M16 30.5l10-12-10 6v6z" fill="#8C8C8C"/>
  <path d="M16 30.5l-10-12 10 6v6z" fill="#343434"/>
</svg>
